<?xml version="1.0" encoding="utf-8"?><!DOCTYPE svg PUBLIC "-//W3C//DTD SVG 1.1//EN" "http://www.w3.org/Graphics/SVG/1.1/DTD/svg11.dtd"><svg version="1.1" id="Contours" xmlns="http://www.w3.org/2000/svg" xmlns:xlink="http://www.w3.org/1999/xlink" x="0px" y="0px" width="1390.197144px" height="1390.197144px" viewBox="0.000000 0.000000 1390.197144 1470.333496" enable-background="new 0 0 1390.197144 1390.197144" xml:space="preserve" stroke="black" fill="none" stroke-linecap='round' stroke-linejoin='round'><path class="selected"  fill="#896e5a" opacity="1.000000" stroke="none" 
 	d="
M1390.197189 1068.165292 C1390.197189 1068.665292 1390.197189 1069.165292 1389.947189 1069.915292 C1389.530441 1071.659433 1389.225021 1073.153085 1389.218551 1074.647958 C1389.151168 1090.294931 1389.559615 1105.919809 1386.304244 1121.425424 C1383.662032 1134.010019 1380.119918 1146.349374 1372.791793 1156.803476 C1358.018234 1177.878549 1336.709640 1187.887216 1311.388595 1188.958017 C1303.526290 1189.290414 1295.428268 1187.762094 1287.666549 1186.050424 C1266.658370 1181.417856 1251.355880 1168.913705 1241.239669 1150.137094 C1231.141280 1131.393686 1227.460494 1110.762948 1227.400924 1089.961313 C1227.007003 952.302133 1227.172042 814.641305 1227.314498 676.981088 C1227.319015 672.698556 1226.190841 672.073068 1222.220626 672.062326 C1151.361617 671.870736 1080.503219 671.465768 1009.644393 671.182321 C983.312667 671.076974 956.980209 671.171518 930.648055 671.152902 C928.638900 671.151437 927.043746 670.730722 927.106734 674.008737 C928.110519 726.225046 925.245162 778.488046 929.141647 830.675485 C929.863326 840.341318 930.186996 850.062753 930.131698 859.755380 C930.006026 881.784128 929.586105 903.811960 929.168807 925.837961 C929.010299 934.202768 928.649154 942.568490 928.165145 950.921274 C927.639816 959.986215 926.977767 969.046884 926.166061 978.090585 C925.304610 987.688363 924.458846 997.300302 923.137313 1006.841073 C921.027694 1022.071481 919.147994 1037.375375 916.049728 1052.417245 C911.612960 1073.957895 907.313949 1095.641977 900.886703 1116.631112 C890.768478 1149.674081 878.010665 1181.763681 861.295455 1212.211435 C847.054305 1238.152719 831.230575 1262.934335 812.844772 1286.153573 C798.094222 1304.781747 782.331893 1322.376718 765.194747 1338.856210 C750.208663 1353.267221 734.444991 1366.649057 717.815231 1379.084604 C697.102950 1394.572641 675.241134 1408.261117 652.262374 1420.036874 C638.984420 1426.841195 625.280013 1432.968637 611.344466 1438.293344 C595.785079 1444.238412 579.896041 1449.452524 563.878280 1454.032968 C543.761276 1459.785653 523.296615 1464.200570 502.390121 1466.169198 C488.441238 1467.482675 474.516402 1469.620736 460.543960 1469.987924 C437.268386 1470.599496 413.942367 1470.778329 390.787948 1467.208017 C382.576949 1465.941903 374.171401 1465.734140 366.065017 1464.037973 C352.349471 1461.167978 338.796798 1457.516366 325.183578 1454.161264 C303.661880 1448.857065 283.090194 1440.865854 263.089767 1431.470346 C235.274856 1418.403818 209.126388 1402.610360 184.912139 1383.538217 C165.733062 1368.432138 146.827041 1353.101449 130.995635 1334.400888 C117.983482 1319.030527 105.009963 1303.613534 92.496474 1287.838754 C78.753814 1270.514291 67.351958 1251.568735 57.339507 1231.917489 C48.602374 1214.769174 40.236922 1197.328866 33.267261 1179.410898 C25.944633 1160.585336 19.633334 1141.262460 14.450771 1121.739877 C9.903473 1104.610360 6.960300 1086.987558 4.372371 1069.426034 C2.188226 1054.604379 0.769756 1039.578012 0.372992 1024.606210 C-0.243806 1001.331491 -0.535615 978.000802 3.155952 954.850107 C4.735865 944.942209 5.369523 934.864023 7.321215 925.039682 C9.809456 912.514596 12.725957 900.030343 16.310292 887.777902 C21.383910 870.434640 26.614471 853.087655 32.914142 836.165292 C40.717189 815.204416 49.823226 794.739816 61.203830 775.394418 C69.247672 761.721078 76.866660 747.764230 85.570586 734.522409 C94.003127 721.693429 103.092300 709.220346 112.774703 697.307504 C125.359519 681.823556 138.254806 666.509530 152.061080 652.125070 C164.655456 639.003244 178.319274 626.842599 192.116409 614.960458 C203.848022 604.857126 215.950332 595.026437 228.768768 586.379892 C247.913757 573.465890 267.585708 561.277597 287.518569 549.609201 C298.388473 543.246164 310.297530 538.670419 321.621078 533.053048 C322.873611 532.431711 324.140456 530.218027 324.065200 528.814401 C323.685989 521.742135 322.660629 514.705697 322.240493 507.634225 C321.425735 493.919809 320.747359 480.194742 320.230911 466.465860 C319.741042 453.443765 319.104018 440.404947 319.292800 427.384530 C319.610214 405.489999 320.317825 383.594797 321.282699 361.718454 C321.801955 349.945352 322.877547 338.172555 324.280502 326.468973 C325.924392 312.755380 327.591506 298.993356 330.354293 285.478372 C333.625839 269.474588 337.626571 253.583078 342.118270 237.873651 C349.751388 211.177575 361.135116 186.056390 375.137557 162.057626 C386.860397 141.965860 400.298690 123.095071 416.027786 106.070970 C435.875228 84.589525 457.389999 64.926690 482.410445 49.295606 C503.512130 36.112676 525.569869 25.057453 549.158370 17.287246 C561.382003 13.260713 573.890609 9.834119 586.507858 7.335344 C601.898971 4.287216 617.472701 1.572678 633.092452 0.443254 C646.857650 -0.552070 660.834884 0.297933 674.643905 1.330289 C686.179794 2.192705 697.638229 4.313795 709.077071 6.204027 C732.384383 10.055495 754.140670 18.506315 774.924361 29.463386 C799.889510 42.624891 822.331527 59.211320 840.412460 81.048150 C850.351730 93.051996 859.797103 105.523324 868.686752 118.324396 C882.892501 138.780847 892.843795 161.479776 901.122970 184.852685 C910.217696 210.527765 917.053146 236.810754 920.198653 263.952188 C921.857101 278.262094 924.085983 292.533121 925.044967 306.889352 C926.056930 322.038583 925.943832 337.267129 926.168990 352.463296 C926.317977 362.517770 926.068649 372.578439 926.236556 382.632333 C926.379012 391.163736 927.021774 399.686715 927.167281 408.218118 C927.585433 432.744119 927.884628 457.272256 928.184127 481.800119 C928.269637 488.798776 928.361373 495.805032 928.118270 502.796274 C928.017867 505.684335 928.849227 506.220071 931.622970 506.240732 C959.817855 506.450631 988.010604 506.941842 1016.205550 507.142282 C1073.897628 507.552347 1131.590499 507.841195 1189.283126 508.156961 C1199.949020 508.215310 1210.618209 508.033212 1221.280074 508.246194 C1224.457320 508.309701 1225.271651 507.541360 1225.278609 504.288431 C1225.513717 394.431344 1225.875777 284.574563 1226.187545 174.717630 C1226.253707 151.385568 1226.268600 128.052835 1226.168868 104.721010 C1226.113937 91.873369 1226.743697 79.163972 1229.069869 66.442064 C1233.256881 43.542219 1245.460860 26.451837 1265.585372 15.491741 C1284.611007 5.130146 1305.143844 2.362876 1326.456100 7.175380 C1348.961837 12.257365 1364.936935 25.895694 1375.077682 46.107183 C1384.816818 65.518236 1387.818038 86.871095 1387.990401 108.161035 C1388.790939 207.071802 1389.086105 305.988290 1389.151778 404.903024 C1389.297408 624.226144 1389.194869 843.549447 1389.238448 1062.872690 C1389.238815 1064.636850 1389.863815 1066.401132 1390.197189 1068.165292 M759.197189 769.665292 C759.197189 738.668222 759.101180 707.670480 759.307540 676.674753 C759.336349 672.350595 758.588973 671.034067 753.913558 671.042917 C666.420394 671.209421 578.926803 671.195321 491.433486 671.070810 C487.342971 671.064950 486.062606 671.677072 486.068801 676.221444 C486.230819 795.045663 486.290603 913.870370 486.125594 1032.694589 C486.088485 1059.420663 487.989730 1086.257821 484.016708 1112.833261 C482.627670 1122.124277 479.949172 1131.422250 476.445846 1140.149667 C471.505874 1152.455942 462.459182 1161.959482 451.926681 1169.880380 C438.700698 1179.827157 423.786910 1185.755258 407.184097 1185.980722 C399.947128 1186.078988 392.519271 1184.816659 385.461257 1183.044687 C363.155074 1177.444345 346.384414 1164.264291 335.231551 1144.175546 C325.388717 1126.446542 322.455795 1106.779794 322.392745 1087.083383 C322.003432 965.427011 322.198714 843.768808 322.180953 722.111215 C322.180709 720.498727 321.936172 718.886300 321.805679 717.273813 C320.314132 718.026315 318.712081 718.618051 317.347945 719.555856 C300.766708 730.955636 284.369064 742.646066 270.561630 757.411996 C259.203017 769.559152 247.603561 781.604928 237.487167 794.754526 C227.775283 807.378244 219.166396 820.985055 211.296966 834.854501 C203.162902 849.190317 195.567184 863.986764 189.435424 879.263864 C181.879623 898.088693 175.312453 917.396188 172.199310 937.622018 C169.522277 955.014474 165.367812 972.339914 164.551177 989.820382 C163.354842 1015.428659 162.810210 1041.256479 168.237655 1066.632455 C171.306701 1080.981820 174.402450 1095.345224 178.167266 1109.521371 C183.703597 1130.368173 192.758453 1149.827035 203.218261 1168.623300 C215.207916 1190.168588 229.838104 1209.885995 247.172439 1227.321298 C257.753219 1237.963754 269.600478 1247.432016 281.424178 1256.734628 C300.882705 1272.044076 322.930404 1282.783456 346.141067 1291.117319 C359.928878 1296.067636 373.902480 1300.404184 388.557845 1302.214609 C400.063552 1303.635873 411.482375 1306.587411 422.997146 1306.929941 C444.428390 1307.567392 465.972213 1308.277597 487.241653 1304.160287 C497.418197 1302.190194 507.670730 1300.522958 517.735641 1298.085946 C535.182052 1293.861337 552.100631 1287.888559 568.244674 1280.062021 C579.517684 1274.596811 590.499252 1268.465463 601.295882 1262.097421 C619.032516 1251.636117 635.405868 1239.193124 650.466903 1225.199350 C660.393539 1215.976083 669.848678 1206.154794 678.726608 1195.917611 C688.359969 1184.809213 697.778548 1173.384530 706.045089 1161.249032 C721.160384 1139.059579 733.616378 1115.383188 743.655990 1090.373544 C754.142135 1064.251596 759.923446 1037.195566 760.035445 1009.232553 C760.253829 954.710275 759.484054 900.184457 759.217941 845.659555 C759.095931 820.662057 759.197189 795.663400 759.197189 769.665292 M748.197189 230.665277 C745.253158 224.054529 742.591598 217.299814 739.310287 210.860925 C730.592941 193.754953 717.304244 180.864526 700.347335 172.300577 C680.284896 162.168237 658.955489 158.286401 636.302779 160.993753 C620.733321 162.854562 606.071883 167.157800 592.101974 173.859308 C569.506881 184.698358 550.260299 199.896615 533.804855 218.891641 C520.919051 233.766107 510.285323 249.946741 502.221633 267.830118 C492.713149 288.917642 486.724654 311.166360 486.433730 334.170663 C485.713241 391.142770 486.222244 448.130197 486.121658 505.111276 C486.116744 507.901834 487.034469 508.301767 489.435806 508.205881 C500.123794 507.779031 510.817306 507.221200 521.509383 507.209695 C598.650497 507.126840 675.791915 507.134195 752.932967 507.253671 C756.948531 507.259866 758.467208 506.780099 758.331161 502.135843 C757.695907 480.456613 757.432235 458.764596 757.218307 437.075326 C756.812118 395.894388 756.585555 354.711679 756.167342 313.530862 C756.021529 299.171823 755.238631 284.815347 755.281783 270.459329 C755.322433 256.929819 753.259078 243.866998 748.197189 230.665277 z"/></svg>