<?xml version="1.0" encoding="utf-8"?><!DOCTYPE svg PUBLIC "-//W3C//DTD SVG 1.1//EN" "http://www.w3.org/Graphics/SVG/1.1/DTD/svg11.dtd"><svg version="1.1" id="Contours" xmlns="http://www.w3.org/2000/svg" xmlns:xlink="http://www.w3.org/1999/xlink" x="0px" y="0px" width="2390.191406px" height="2390.191406px" viewBox="0.000004 0.000003 2390.191406 1301.877319" enable-background="new 0 0 2390.191406 2390.191406" xml:space="preserve" stroke="black" fill="none" stroke-linecap='round' stroke-linejoin='round'><path class="selected"  fill="#896e5a" opacity="1.000000" stroke="none" 
 	d="
M634.441108 213.558434 C643.776197 218.118126 653.111286 222.677818 662.446375 227.237509 C668.598293 230.242392 674.933364 233.386497 679.373596 238.597998 C686.082991 246.472817 687.122449 258.678717 681.841258 267.574658 C673.230371 282.079331 651.362995 286.172920 645.997577 302.164955 C654.448306 305.122764 662.899035 308.080573 671.349765 311.038381 C683.301047 315.221405 696.221786 320.175266 702.626582 331.098152 C708.875141 341.754589 706.523660 356.678334 697.301014 364.897028 C691.100499 370.422570 682.750071 372.787838 675.712103 377.197486 C666.464633 382.991499 659.656817 392.205546 650.117768 397.505814 C634.756211 406.041296 615.381808 402.728454 599.333047 395.568204 C583.284286 388.407954 568.925576 377.747697 552.592626 371.261815 C529.196047 361.970938 502.018744 361.306016 481.709071 346.431960 C454.582372 326.565366 418.157082 322.502438 391.620921 301.853672 C387.334131 298.517966 382.980874 293.051546 385.445068 288.210962 C389.976576 279.309426 382.811064 267.043865 388.806179 259.054469 C390.772233 256.434405 393.809113 254.879192 396.737938 253.412195 C413.075143 245.229192 429.412346 237.046187 445.749549 228.863181 C453.906264 224.777632 463.643667 220.666516 471.747620 224.855746 C483.352386 230.854681 494.957151 236.853613 506.561916 242.852545 C512.048446 245.688736 517.809058 248.594507 523.985279 248.577452 C531.663001 248.556248 538.517590 244.057682 544.857394 239.727008 C559.940610 229.423754 575.023829 219.120508 590.107049 208.817261 C603.004597 200.007031 620.406399 206.703229 634.441108 213.558434 z"/><path class="selected"  fill="#896e5a" opacity="1.000000" stroke="none" 
 	d="
M1270.965409 1211.430436 C1273.960873 1221.819597 1258.053840 1226.187867 1247.338859 1224.739882 C1155.785257 1212.367560 1068.609505 1178.878754 982.408006 1145.645693 C718.459983 1043.886433 454.511960 942.127173 190.563937 840.367912 C162.451914 829.529950 128.978818 810.616573 131.779987 780.618228 C133.772658 759.278257 155.506993 744.158928 176.843457 742.129045 C198.179921 740.099163 219.088553 747.903829 239.101059 755.576164 C504.725348 857.410399 770.349637 959.244635 1035.973925 1061.078871 C1122.619380 1094.296744 1214.260717 1131.261425 1268.336904 1206.671158 C1269.398454 1208.151527 1270.460742 1209.680101 1270.965409 1211.430436 M1097.025534 1146.772089 C975.269045 1098.863521 853.512555 1050.954952 731.756065 1003.046384 C797.366117 1019.141047 860.614683 1043.488718 923.655273 1067.770423 C990.793759 1093.630539 1057.932245 1119.490654 1125.070731 1145.350770 C1133.439012 1148.574029 1140.872148 1136.343823 1137.233221 1128.147742 C1133.594294 1119.951661 1124.422368 1115.994004 1116.053643 1112.771898 C817.012439 997.635785 517.971235 882.499672 218.930031 767.363559 C206.408606 762.542591 193.333730 757.638269 179.971066 758.849468 C166.608401 760.060667 152.955240 769.390240 151.526981 782.731450 C149.481568 801.837351 170.894948 814.000224 188.838154 820.874855 C490.840478 936.581841 792.842792 1052.288827 1094.845107 1167.995814 C1123.191332 1178.856182 1152.082168 1189.839091 1182.378783 1191.728871 C1180.134191 1179.667348 1185.906810 1166.509833 1196.301977 1159.993773 C1186.051856 1144.011469 1169.421964 1132.249146 1150.938114 1127.907913 C1154.450884 1139.371591 1143.650068 1151.201110 1131.866796 1153.416976 C1120.083525 1155.632842 1108.182707 1151.162207 1097.025532 1146.772105 M1240.654342 1203.526952 C1230.654396 1193.511047 1220.654450 1183.495143 1210.654504 1173.479239 C1208.327102 1171.148123 1205.810651 1168.710795 1202.588983 1168.023947 C1198.634366 1167.180836 1194.459671 1169.326235 1192.049078 1172.572599 C1189.638486 1175.818963 1188.749742 1179.967204 1188.583181 1184.007265 C1188.464388 1186.888710 1188.777351 1190.023615 1190.709826 1192.164264 C1192.529352 1194.179796 1195.362792 1194.861736 1198.015351 1195.442231 C1211.218301 1198.331607 1224.421252 1201.220983 1237.624202 1204.110359 C1238.700016 1204.345794 1240.076103 1204.464208 1240.654344 1203.526955 z"/><path class="selected"  fill="#896e5a" opacity="1.000000" stroke="none" 
 	d="
M1732.165317 856.830453 C1743.552663 856.453497 1754.362094 861.392603 1764.680090 866.225064 C1776.698452 871.853895 1788.949916 877.639881 1798.533617 886.820155 C1803.157215 891.249122 1807.051277 896.371098 1810.924372 901.469387 C1815.229987 907.137016 1819.535602 912.804646 1823.841217 918.472275 C1828.972207 925.226374 1834.223322 932.223603 1836.313810 940.443990 C1838.404298 948.664377 1836.533508 958.506503 1829.619778 963.420284 C1825.958761 966.022273 1821.205281 967.074534 1818.149175 970.365979 C1815.093069 973.657424 1815.914243 980.730715 1820.405571 980.767606 C1831.153284 980.855882 1839.250530 990.876057 1842.955945 1000.965209 C1846.661360 1011.054362 1847.730541 1022.151764 1852.971243 1031.535587 C1857.630991 1039.879188 1865.633779 1049.415971 1860.591367 1057.534038 C1859.410820 1059.434659 1857.634435 1060.875781 1855.891919 1062.279234 C1827.638286 1085.035182 1799.384654 1107.791131 1771.131022 1130.547081 C1770.002227 1131.456232 1768.782880 1132.403620 1767.339776 1132.538473 C1766.066017 1132.657499 1764.832832 1132.120344 1763.666308 1131.595130 C1671.880813 1090.269700 1580.095317 1048.944271 1488.309821 1007.618843 C1485.099043 1006.173225 1481.834523 1004.693431 1479.196867 1002.360692 C1472.674479 996.592303 1471.346008 986.922420 1471.907679 978.233324 C1473.307713 956.574872 1483.751821 936.241448 1497.833717 919.726341 C1511.915614 903.211233 1529.520141 890.105631 1547.401406 877.804861 C1551.710295 874.840714 1556.108098 871.882059 1561.046498 870.160176 C1575.357313 865.170392 1590.909907 871.350091 1604.790572 877.434867 C1616.241443 882.454511 1627.692313 887.474154 1639.143183 892.493797 C1644.022065 894.632521 1649.077971 896.810145 1654.405037 896.808964 C1664.686351 896.806683 1672.991185 888.959787 1680.880986 882.367635 C1688.962582 875.615231 1697.751786 869.710245 1707.058055 864.780689 C1714.884291 860.635113 1723.313768 857.123467 1732.165317 856.830454 M1818.890863 1019.874772 C1815.237774 1014.543090 1806.714092 1016.519262 1801.698421 1020.595403 C1796.682749 1024.671544 1792.479742 1030.437345 1786.159132 1031.787079 C1781.657663 1032.748345 1777.038609 1031.209716 1772.702369 1029.665605 C1718.531232 1010.375526 1665.928171 986.982031 1613.387388 963.613565 C1583.953401 950.522265 1554.519415 937.430965 1525.085428 924.339665 C1518.742836 921.518682 1510.963710 924.416441 1506.342771 929.596533 C1501.721832 934.776625 1499.675312 941.738581 1498.393176 948.560791 C1496.958471 956.194825 1496.310410 963.976463 1496.462571 971.742652 C1496.511949 974.262810 1496.727591 976.994822 1498.396358 978.883961 C1499.457739 980.085506 1500.968258 980.774198 1502.431648 981.428971 C1586.787223 1019.172721 1671.142798 1056.916472 1755.498372 1094.660222 C1760.184371 1096.756908 1765.197951 1098.902817 1770.274254 1098.137419 C1774.434606 1097.510126 1778.034763 1095.005126 1781.466115 1092.570409 C1800.152822 1079.311248 1818.839530 1066.052086 1837.526237 1052.792925 C1833.263166 1040.887101 1826.038670 1030.306994 1818.890862 1019.874772 M1811.821732 944.958717 C1806.848997 933.937544 1800.477609 923.548338 1792.908814 914.119251 C1778.787757 923.147861 1762.590041 932.570903 1746.277480 928.721179 C1737.575376 926.667505 1730.214101 921.050770 1723.144408 915.576866 C1718.168020 911.723760 1713.191631 907.870655 1708.215243 904.017549 C1705.651224 902.032287 1702.992063 899.999230 1699.852398 899.188080 C1696.712733 898.376930 1692.937402 899.105800 1691.091633 901.771995 C1690.431906 902.724969 1690.063953 903.844457 1689.706233 904.946923 C1688.264518 909.390178 1686.832128 914.007385 1687.361209 918.648627 C1687.890291 923.289869 1690.930829 927.982107 1695.508990 928.910275 C1719.369455 933.747701 1739.229569 949.534600 1760.021788 962.199752 C1765.864810 965.758908 1773.133244 969.162293 1779.243892 966.085202 C1789.273055 961.034894 1799.302217 955.984587 1809.331380 950.934280 C1810.667326 950.261548 1812.151009 949.405126 1812.459067 947.941424 C1812.672188 946.928790 1812.247325 945.901966 1811.821733 944.958717 z"/><path class="selected"  fill="#896e5a" opacity="1.000000" stroke="none" 
 	d="
M574.032711 934.117929 C591.275840 941.722172 608.518969 949.326415 625.762098 956.930658 C647.055789 966.321204 668.367065 975.720161 689.008854 986.468192 C532.278741 924.509280 375.548628 862.550368 218.818515 800.591457 C213.920386 798.655117 208.652166 796.406259 206.070972 791.815125 C207.835065 786.918934 214.979382 787.849924 219.835085 789.722580 C328.818078 831.753269 437.589070 874.431076 544.628139 921.191195 C554.439638 925.477358 564.236187 929.797649 574.032711 934.117929 z"/><path class="selected"  fill="#896e5a" opacity="1.000000" stroke="none" 
 	d="
M1507.894659 376.683821 C1535.387951 348.162919 1582.704651 360.874971 1619.504059 375.542164 C1685.008650 401.650423 1750.513241 427.758683 1816.017832 453.866942 C1867.346524 453.118947 1917.756918 484.631307 1939.569138 531.100880 C1973.267176 512.792391 2014.781537 523.746227 2051.087935 536.099525 C2111.871559 556.781270 2171.672492 580.350864 2230.221524 606.702222 C2272.567871 625.761180 2315.236432 646.975706 2347.200527 680.661811 C2379.164622 714.347916 2398.820770 763.200796 2386.452331 807.961032 C2374.498675 851.220174 2336.590039 881.449595 2300.845569 908.589513 C2136.525535 1033.353737 1972.205510 1158.117969 1807.885486 1282.882200 C1796.985620 1291.158205 1785.415632 1299.719852 1771.848517 1301.517825 C1757.125955 1303.468923 1742.709052 1297.127634 1729.209647 1290.936781 C1184.098472 1040.947744 638.987298 790.958705 93.876121 540.969670 C61.910456 526.310155 27.866724 509.785172 10.777053 479.050041 C-9.845323 441.961469 1.183142 393.740360 26.490197 359.675751 C51.797251 325.611143 88.900490 302.615763 125.084982 280.445352 C173.916964 250.525778 222.748940 220.606198 271.580917 190.686618 C324.869510 158.036449 378.158102 125.386279 431.446782 92.736253 C467.651385 70.553658 503.855906 48.370931 540.060589 26.188468 C564.590899 11.158848 592.236462 -4.481248 620.440501 1.189533 C652.493699 7.634249 673.448964 39.335771 703.875859 51.300127 C721.105316 58.075048 740.114127 58.035877 758.550332 59.727068 C814.209355 64.832785 868.193115 86.947309 911.437809 122.357641 C983.199402 126.397391 1053.390359 154.581885 1108.017896 201.292469 C1149.368443 197.318696 1189.869659 212.614424 1228.596150 227.644975 C1283.122215 248.807668 1337.648281 269.970361 1392.174346 291.133054 C1438.201849 308.997278 1488.806906 331.150105 1507.894660 376.683820 M1079.078778 302.151470 C1024.438320 296.216391 971.258030 277.244483 925.198816 247.255259 C906.561295 235.120338 882.072418 232.479604 861.276323 240.362238 C847.374519 208.237110 807.070426 190.349766 773.921222 201.593218 C761.539202 174.865788 725.935099 161.831591 699.223293 174.247282 C680.766268 143.264260 637.238745 130.302316 604.838869 146.140798 C611.446874 131.418378 597.541776 114.846430 582.299640 109.546177 C567.057504 104.245923 550.152306 105.417236 534.906718 100.126921 C517.886708 94.220892 503.246767 80.421645 485.236968 79.964367 C468.643817 79.543055 454.233014 90.603618 441.376793 101.102561 C411.588837 125.428717 381.800875 149.754865 352.012914 174.081013 C336.240223 186.961681 315.185497 190.844658 296.690429 199.366506 C278.195362 207.888353 260.325451 225.410579 263.589954 245.511137 C231.201174 233.170335 190.400885 253.906304 181.278373 287.344430 C155.855882 291.044504 128.460708 295.716397 110.605791 314.187874 C92.750874 332.659352 93.166291 369.760490 117.157814 378.947459 C203.976193 412.192440 289.490562 448.842643 373.438321 488.785520 C384.857866 455.687325 400.365847 418.935629 433.224906 406.845186 C461.349253 396.496874 492.312851 408.117603 519.988523 419.612108 C684.140399 487.789116 848.292274 555.966124 1012.444150 624.143132 C1027.816534 630.527726 1027.067064 654.061704 1016.395910 666.836667 C1005.724756 679.611631 989.344539 685.963498 976.344771 696.359617 C963.345004 706.755735 953.634079 725.769851 962.703026 739.727911 C967.280837 746.773643 975.416895 750.497310 983.116442 753.861187 C1121.449357 814.297830 1259.782271 874.734474 1398.115185 935.171118 C1414.794173 942.458046 1433.035975 930.082224 1447.017760 918.429000 C1484.647775 887.065961 1522.277793 855.702928 1559.907811 824.339895 C1553.027671 782.968005 1510.628614 757.782134 1470.734522 744.842619 C1430.840430 731.903105 1386.753337 724.139811 1356.645600 694.942315 C1368.857111 674.902893 1381.488988 654.386887 1400.100762 640.093485 C1418.712536 625.800084 1444.918381 618.905794 1466.039874 629.132327 C1510.501092 650.659410 1554.962310 672.186493 1599.423529 693.713576 C1626.489189 706.818135 1655.218423 721.454871 1669.732318 747.791657 C1692.056860 755.321045 1715.957579 731.999402 1715.425361 708.445341 C1714.893143 684.891281 1696.822471 664.868167 1676.074598 653.705606 C1655.326725 642.543045 1631.745399 638.129034 1609.258879 631.098141 C1586.772359 624.067249 1563.989170 613.375386 1550.798333 593.854145 C1546.503685 587.498455 1544.222176 577.240417 1550.887581 573.444212 C1575.432453 559.464965 1583.350906 522.903830 1566.789506 500.021739 C1550.228106 477.139649 1513.023393 473.237365 1492.074592 492.185130 C1477.673947 458.381056 1438.164608 437.343397 1402.078758 444.264771 C1359.582130 430.124085 1318.300654 412.333568 1278.837785 391.153284 C1251.425937 376.440958 1208.786148 384.617868 1195.581112 356.448933 C1186.521085 337.122126 1157.315298 345.341736 1137.039771 338.669912 C1115.043073 331.431724 1102.100351 304.652091 1079.078776 302.151473 M1691.689302 756.078716 C1617.792187 816.461466 1543.895072 876.844216 1469.997957 937.226967 C1454.217463 950.121513 1437.220351 963.547996 1416.969095 965.823945 C1398.462160 967.903845 1380.394829 960.283919 1363.328951 952.828158 C947.947999 771.355841 532.567044 589.883538 117.186089 408.411236 C97.384198 399.760154 74.953830 387.903317 71.359758 366.595133 C62.882348 371.183222 54.404937 375.771312 45.927526 380.359403 C37.402965 410.187171 51.390250 442.801313 73.345051 464.718215 C95.299851 486.635116 124.145645 499.996488 152.348015 512.918955 C682.543685 755.857187 1212.739350 998.795426 1742.935014 1241.733664 C1761.907843 1250.427107 1783.224822 1237.265389 1799.906643 1224.725015 C1951.463905 1110.793260 2103.021182 996.861539 2254.578459 882.929818 C2288.079003 857.746108 2323.863316 829.160240 2333.114481 788.283331 C2340.379144 756.183931 2328.145416 720.462793 2302.727437 699.556499 C2268.901503 734.694855 2228.633988 763.612688 2184.530055 784.439112 C2143.507288 841.951127 2087.995988 889.042532 2024.565531 920.140384 C2008.688091 927.924568 1989.846756 921.273290 1973.476360 914.587728 C1894.710479 882.420233 1815.944597 850.252746 1737.178716 818.085258 C1710.153287 807.048245 1677.397420 781.533220 1691.689297 756.078717 M1376.327170 327.615001 C1358.398679 298.531986 1321.239611 282.741890 1287.859209 290.022089 C1270.129336 256.135046 1224.462294 240.177144 1189.485374 255.646312 C1177.447747 217.177607 1120.022446 203.193492 1091.645763 231.820571 C1079.588465 228.735551 1076.174257 213.796292 1071.554025 202.239940 C1057.114980 166.124284 1007.303914 149.751790 974.253684 170.258105 C962.914857 139.766780 921.689647 124.982170 893.557216 141.317904 C883.499199 128.574517 872.658172 115.746159 858.131174 108.498817 C843.604177 101.251475 824.397999 100.971228 812.506825 112.023720 C803.920790 87.173764 776.393892 70.413193 750.375604 74.193277 C724.357317 77.973361 702.737936 101.874182 701.578297 128.140045 C701.206057 136.571276 705.818076 147.545621 714.156166 146.241598 C732.061879 143.441260 749.899003 150.385319 766.694235 157.195356 C1087.084096 287.105253 1407.473956 417.015150 1727.863817 546.925047 C1766.757502 562.695442 1810.574652 583.909010 1820.539575 624.678171 C1856.550082 606.902519 1888.843829 581.639923 1914.765562 550.967525 C1900.703840 505.989502 1847.272482 477.663007 1802.153815 491.266701 C1787.691008 475.655649 1772.655530 459.628005 1753.179173 451.051921 C1733.702815 442.475836 1708.432040 443.288960 1693.782594 458.725004 C1684.226704 434.144724 1659.734997 416.093655 1633.427666 414.241745 C1619.173797 413.238341 1602.331279 415.668078 1592.928212 404.908805 C1568.202387 376.616772 1516.784281 379.220697 1495.043167 409.865918 C1484.513503 384.440235 1472.907835 358.365750 1452.371528 340.046382 C1431.835221 321.727014 1399.852114 313.335079 1376.327170 327.615001 M2102.205270 714.022347 C2091.957842 708.104380 2081.512465 702.149691 2070.007706 699.379739 C2058.502946 696.609787 2045.594101 697.407162 2035.910262 704.208294 C2031.933329 694.343091 2022.174121 688.192439 2012.718099 683.321919 C1992.175496 672.741025 1970.175895 664.993591 1947.536293 660.367332 C1941.878663 659.211231 1936.082038 658.215408 1930.961635 655.545795 C1926.975169 653.467380 1923.566647 650.458756 1919.936566 647.806544 C1903.588724 635.862472 1882.066989 631.278120 1862.270707 635.523119 C1842.474425 639.768119 1824.724561 652.773645 1814.711291 670.370441 C1805.500306 686.557344 1786.131602 693.385009 1768.506184 699.401880 C1750.880766 705.418750 1731.638008 713.460194 1724.086174 730.484526 C1720.002108 739.691359 1720.079867 750.130110 1720.228772 760.201018 C1720.292300 764.497577 1720.428787 769.048033 1722.752700 772.662432 C1724.504450 775.386940 1727.298493 777.243919 1730.058108 778.939824 C1745.706392 788.556384 1762.795668 795.548448 1779.797701 802.496675 C1852.281590 832.118694 1924.765479 861.740714 1997.249369 891.362733 C2001.996610 893.302790 2007.066165 895.281385 2012.114488 894.378860 C2015.755928 893.727854 2018.954392 891.640621 2022.039754 889.599926 C2051.578961 870.062338 2081.118169 850.524749 2110.657376 830.987161 C2130.135853 818.103862 2151.576257 802.077368 2153.593696 778.811075 C2154.854744 764.267922 2147.743679 749.995081 2137.693008 739.408412 C2127.642337 728.821744 2114.846409 721.322701 2102.205270 714.022348 M1915.158851 614.181353 C1916.259205 618.923194 1920.498838 622.170366 1924.454506 625.007360 C1934.104182 631.928071 1943.996595 638.969375 1955.396258 642.295059 C1961.363067 644.035788 1967.579219 644.705253 1973.712349 645.714046 C2000.465041 650.114398 2026.091403 661.202882 2047.613719 677.691045 C2052.770048 681.641290 2058.176844 686.091369 2064.661831 686.461648 C2109.019510 688.994370 2152.151972 708.938503 2182.812469 741.093630 C2188.797517 747.370436 2198.004381 749.788863 2206.658447 749.217690 C2215.312513 748.646516 2223.561061 745.423706 2231.450749 741.822050 C2246.845563 734.794293 2262.419484 725.198825 2269.349365 709.759705 C2279.415446 687.333426 2267.839580 661.244208 2253.724758 641.118707 C2250.178128 636.061773 2246.423167 631.089220 2241.802697 626.990144 C2234.393927 620.417406 2225.125878 616.395332 2216.028596 612.479951 C2204.968122 607.719631 2193.553443 602.879661 2181.513893 602.670037 C2169.474343 602.460413 2156.511530 608.019531 2151.588869 619.008713 C2146.280802 596.690317 2125.286876 581.212449 2103.504115 574.015383 C2084.949807 567.885004 2061.514105 567.676552 2049.142206 582.802029 C2042.287949 565.477894 2029.618342 550.222485 2013.042473 541.716775 C1996.466605 533.211066 1975.990173 531.942430 1959.087395 539.778410 C1945.067624 546.277853 1934.214486 558.501692 1927.331861 572.337378 C1922.312938 582.426586 1919.252100 593.354895 1916.219836 604.207870 C1915.310115 607.463909 1914.394649 610.888121 1915.158850 614.181353 M554.523871 516.263034 C518.164232 501.590616 483.554171 482.588082 451.658545 459.785182 C438.521043 450.392886 417.655182 455.003627 409.698509 469.057114 C401.741835 483.110602 408.524156 503.374935 423.337363 509.807514 C571.828053 574.289027 720.249226 638.930623 868.600540 703.732153 C881.919020 709.549815 895.554247 715.578688 905.944511 725.740848 C910.394334 730.092982 914.512764 735.357442 920.488673 737.098278 C929.570259 739.743830 939.180116 732.627466 942.702805 723.848808 C946.225493 715.070149 945.250143 705.217925 944.218550 695.815267 C943.844917 692.409709 943.408065 688.833786 941.400708 686.057469 C939.420405 683.318584 936.219345 681.784807 933.153423 680.362413 C808.361007 622.466634 682.096801 567.743283 554.523871 516.263034 M1744.490945 684.227096 C1758.193790 672.812606 1781.524920 676.509218 1792.371161 662.352325 C1798.629761 654.183390 1798.270217 642.715990 1795.817003 632.721826 C1793.363789 622.727661 1789.109350 613.072950 1788.483605 602.801142 C1787.849985 592.400024 1774.099102 587.340461 1764.337382 590.986487 C1754.575662 594.632514 1747.966415 603.523474 1741.146985 611.402564 C1734.327554 619.281654 1725.604443 627.036457 1715.184590 626.929915 C1709.838860 626.875256 1704.767412 624.716682 1699.860583 622.594693 C1665.644350 607.797663 1631.428117 593.000635 1597.211884 578.203606 C1588.915866 574.615940 1578.342565 571.343946 1571.660276 577.430183 C1565.636805 582.916367 1567.020750 593.323499 1572.349519 599.486668 C1577.678288 605.649838 1585.687919 608.652157 1593.317757 611.509779 C1634.680428 627.001443 1675.067220 645.098174 1714.159318 665.657115 C1722.588879 670.090309 1731.949568 676.022490 1733.086239 685.478636 C1733.369680 687.836627 1736.409590 688.943157 1738.682870 688.255655 C1740.956151 687.568152 1742.666150 685.747161 1744.490948 684.227104 M542.872770 87.196682 C548.297347 92.296568 556.784629 91.298070 564.221160 90.933566 C583.543529 89.986473 603.132331 95.848495 618.758150 107.253962 C620.750322 108.708072 623.527318 107.901717 625.839141 107.042265 C630.910389 105.156945 635.981639 103.271631 641.052888 101.386317 C649.775607 98.143513 659.569932 93.816044 662.320126 84.925711 C663.941789 79.683490 662.645952 74.035763 661.344594 68.704990 C659.755301 62.194743 658.166008 55.684495 656.576715 49.174248 C655.781212 45.915617 654.656865 42.239754 651.611023 40.834638 C648.278688 39.297357 644.462428 41.277706 641.336627 43.200480 C631.708102 49.123280 622.079577 55.046078 612.451052 60.968877 C609.186683 62.976889 605.765064 65.038615 601.946238 65.362327 C596.557174 65.819140 591.555216 62.754470 587.124073 59.653559 C574.865791 51.075219 560.930565 40.692311 546.491086 44.610836 C542.994119 45.559828 539.307129 47.970193 539.106271 51.588068 C538.810003 56.924473 538.513735 62.260877 538.217466 67.597282 C537.832391 74.533274 537.811597 82.438447 542.872770 87.196682 M1568.563088 781.637743 C1569.044741 787.912194 1571.592278 793.817401 1574.104932 799.586916 C1575.305154 802.342847 1576.634336 805.255482 1579.154413 806.894050 C1581.432771 808.375450 1584.290629 808.552834 1587.004995 808.685807 C1593.166440 808.987648 1599.713563 809.202556 1605.068623 806.140228 C1609.043504 803.867165 1611.857223 800.058235 1615.224276 796.955099 C1620.539973 792.056056 1627.355358 788.821334 1631.978665 783.264150 C1639.627031 774.070866 1639.550529 760.915062 1639.087611 748.965179 C1638.920797 744.659005 1638.719997 740.210924 1636.841374 736.332556 C1632.543810 727.460348 1621.448238 724.726279 1611.742969 722.996278 C1609.623759 722.618521 1607.469269 722.239355 1605.329730 722.476258 C1603.049448 722.728744 1600.904851 723.668828 1598.858926 724.706916 C1584.944909 731.766787 1573.784004 744.092819 1568.135882 758.637246 C1567.692889 759.777991 1567.279738 761.042662 1567.676594 762.200266 C1569.790857 768.367399 1568.064094 775.137387 1568.563088 781.637743 z"/></svg>