<?xml version="1.0" encoding="utf-8"?><!DOCTYPE svg PUBLIC "-//W3C//DTD SVG 1.1//EN" "http://www.w3.org/Graphics/SVG/1.1/DTD/svg11.dtd"><svg version="1.1" id="Contours" xmlns="http://www.w3.org/2000/svg" xmlns:xlink="http://www.w3.org/1999/xlink" x="0px" y="0px" width="2049.894287px" height="2049.894287px" viewBox="-0.000001 0.000004 2049.894287 1597.565918" enable-background="new 0 0 2049.894287 2049.894287" xml:space="preserve" stroke="black" fill="none" stroke-linecap='round' stroke-linejoin='round'><path class="selected"  fill="#896e5a" opacity="1.000000" stroke="none" 
 	d="
M1154.078478 1198.318157 C1166.306674 1209.178876 1167.615273 1228.826106 1160.531079 1243.567143 C1153.446885 1258.308180 1139.705709 1268.788115 1125.280822 1276.495685 C1092.116440 1294.216225 1052.693446 1299.922196 1015.865677 1292.332119 C1008.983244 1290.913676 1001.952832 1288.927022 996.568752 1284.411322 C986.582875 1276.036031 984.893152 1260.611079 989.608128 1248.460678 C994.323103 1236.310277 1004.165491 1226.902018 1014.460472 1218.909735 C1048.678875 1192.345049 1094.453338 1176.855764 1135.982275 1189.181699 C1142.513278 1191.120124 1148.984864 1193.794160 1154.078479 1198.318156 z"/><path class="selected"  fill="#896e5a" opacity="1.000000" stroke="none" 
 	d="
M1039.629483 1033.431734 C1034.738439 1031.157844 1029.703583 1028.642450 1026.444423 1024.344687 C1022.819050 1019.563999 1021.924682 1013.259744 1021.869556 1007.260138 C1021.712362 990.152179 1028.954238 971.490679 1044.494604 964.334985 C1052.192572 960.790388 1060.966261 960.467185 1069.430401 960.892860 C1087.907429 961.822100 1106.213379 966.057036 1123.221230 973.336943 C1137.139515 979.294413 1150.493799 987.556847 1159.609191 999.644846 C1168.724584 1011.732845 1173.020154 1028.136303 1168.043512 1042.434665 C1163.066869 1056.733026 1147.518272 1067.432059 1132.698700 1064.335224 C1100.631129 1057.634089 1069.336252 1047.242671 1039.629484 1033.431732 z"/><path class="selected"  fill="#896e5a" opacity="1.000000" stroke="none" 
 	d="
M737.570823 1239.953760 C709.788505 1253.724349 679.663438 1262.753320 648.886913 1266.533767 C641.704465 1267.416025 633.873870 1267.875121 627.790140 1263.956682 C621.132955 1259.668888 618.371428 1250.998697 619.069879 1243.111018 C619.768331 1235.223340 623.336438 1227.907794 627.007853 1220.891811 C638.787859 1198.380536 652.276624 1176.763697 667.319817 1156.288632 C674.350144 1146.719759 681.821541 1137.297053 691.206038 1130.022435 C702.444340 1121.310797 716.005109 1116.029471 729.805326 1112.602216 C746.263818 1108.514784 765.810952 1107.704589 777.956174 1119.540239 C788.388007 1129.706173 789.832357 1145.878502 788.877958 1160.413235 C787.444312 1182.246514 781.465195 1204.854686 766.235109 1220.564299 C758.165724 1228.887756 747.957781 1234.805360 737.570824 1239.953761 z"/><path class="selected"  fill="#896e5a" opacity="1.000000" stroke="none" 
 	d="
M559.690103 713.970467 C568.630063 704.825239 580.612158 696.614964 593.237102 698.656749 C598.473698 699.503646 603.249608 702.052910 608.149944 704.084137 C614.547071 706.735796 621.449681 708.635138 626.785488 713.049172 C633.710640 718.777986 636.957448 728.148738 636.689385 737.132344 C636.421321 746.115950 632.993204 754.751345 628.465181 762.514981 C621.805757 773.933064 612.760669 783.795634 603.032473 792.744530 C594.596925 800.504330 585.353893 807.784144 574.507979 811.490775 C563.662065 815.197406 550.893271 814.832901 541.581477 808.149828 C533.078166 802.047006 528.559338 791.441628 528.041131 780.987815 C527.522925 770.534002 530.589790 760.194559 534.834999 750.627483 C540.854591 737.061629 549.315413 724.583368 559.690103 713.970468 M608.298405 740.571550 C608.270052 735.258766 607.897238 729.194137 603.746925 725.877304 C602.507451 724.886746 601.026284 724.243277 599.521184 723.741104 C585.630056 719.106363 569.773444 726.589270 561.240337 738.490125 C552.707230 750.390980 550.318282 765.679095 550.518607 780.321640 C550.549309 782.565727 550.682537 784.956595 551.992365 786.779016 C553.948949 789.501297 557.735625 789.983977 561.079023 790.230403 C568.631921 790.787092 577.324219 790.918117 582.424167 785.319305 C587.643143 779.589820 592.862120 773.860335 598.081096 768.130850 C601.188569 764.719413 604.353377 761.220078 606.155067 756.971760 C608.323502 751.858676 608.328048 746.125366 608.298409 740.571551 z"/><path class="selected"  fill="#896e5a" opacity="1.000000" stroke="none" 
 	d="
M901.693313 622.617240 C914.653137 612.455137 933.434941 616.525290 948.909840 622.160259 C959.740030 626.103921 970.593579 630.713716 979.222334 638.355055 C987.851089 645.996394 994.022896 657.202338 993.055191 668.687504 C992.637779 673.641536 990.933705 678.414785 988.705205 682.858932 C984.427424 691.389819 977.964205 699.054618 969.490416 703.444415 C961.016626 707.834212 950.414896 708.586983 941.958349 704.164061 C936.420656 701.267750 932.110577 696.425435 926.647206 693.391257 C920.321979 689.878433 912.900770 689.018788 906.086865 686.585861 C894.924657 682.600358 884.807331 672.858240 884.591004 661.007826 C884.507167 656.415267 885.888566 651.934770 887.318444 647.569673 C890.352554 638.307216 894.023352 628.631440 901.693316 622.617242 M907.778767 663.757366 C907.785520 666.289092 907.803562 668.885085 908.700726 671.252527 C910.449639 675.867570 915.114747 678.644688 919.626570 680.644881 C929.546495 685.042610 940.347081 687.442814 951.195931 687.660512 C958.599835 687.809082 967.308204 686.093396 970.465847 679.394952 C971.668471 676.843776 971.840636 673.944685 971.963217 671.126925 C972.196670 665.760594 972.171228 659.902998 968.856794 655.676117 C957.950913 641.767897 938.426693 637.491975 920.817614 639.007626 C916.729285 639.359517 912.214969 640.224104 909.781873 643.528389 C907.811785 646.203882 907.741490 649.781618 907.750352 653.104182 C907.759824 656.655243 907.769295 660.206304 907.778767 663.757366 z"/><path class="selected"  fill="#896e5a" opacity="1.000000" stroke="none" 
 	d="
M926.255240 1443.648125 C949.210502 1520.860095 867.797354 1599.491928 787.269205 1597.529932 C706.741056 1595.567936 637.835985 1536.639510 593.639839 1469.294629 C575.854403 1442.193675 554.300049 1409.444696 521.907328 1410.667554 C401.216760 1415.223904 285.714474 1337.172835 229.711445 1230.165220 C173.708417 1123.157605 172.647711 992.731901 210.229308 877.951274 C159.889267 893.152991 100.863192 872.543279 70.925889 829.311695 C40.988586 786.080111 42.459936 723.576728 74.398321 681.801718 C29.524778 693.172261 -10.367757 637.008979 2.421968 592.519126 C15.211693 548.029272 61.334418 520.806015 106.690316 511.544986 C178.605130 496.861003 256.923703 517.875821 311.827639 566.588424 C408.196888 416.469323 516.587915 270.038164 660.714014 164.917070 C917.140851 -22.112692 1278.665554 -53.106598 1563.185064 87.547245 C1847.704573 228.201088 2042.602482 534.265686 2049.707060 851.573706 C2052.692083 984.892140 2020.395711 1126.749052 1924.780937 1219.703504 C1808.668412 1332.585391 1630.892428 1347.316298 1468.954545 1346.567663 C1449.180474 1405.357986 1394.404550 1450.831074 1332.979482 1459.449483 C1271.554415 1468.067892 1206.379427 1439.424838 1171.189915 1388.346328 C1098.399030 1432.592789 1010.995676 1452.326878 926.255240 1443.648125 M568.829799 1372.288277 C591.874011 1375.422914 616.938606 1378.183504 636.966077 1366.361404 C693.123077 1333.212252 765.592384 1329.455900 824.875714 1356.621352 C844.251455 1365.499915 862.215468 1377.418439 882.151613 1384.954905 C916.836569 1398.066866 955.161807 1397.089823 992.052638 1393.343309 C1049.772690 1387.481447 1109.068368 1374.263835 1154.790757 1338.550686 C1200.513145 1302.837537 1228.874850 1239.805046 1209.572450 1185.093227 C1223.890997 1186.255636 1237.075662 1196.452078 1241.801849 1210.018034 C1332.315714 1143.870374 1369.065635 1020.563496 1351.799810 909.792724 C1334.533985 799.021951 1270.666833 700.175803 1193.199740 619.138021 C1105.887126 527.800909 994.427029 452.750992 868.972656 437.679140 C794.643200 428.749339 719.458559 441.200810 646.296648 457.073556 C536.501756 480.893962 419.096013 519.060423 357.311292 612.895268 C344.740677 631.986748 324.183175 656.280238 304.506653 644.646689 C298.117168 640.868941 294.301890 634.043501 290.312908 627.783733 C244.225813 555.460805 133.337060 535.450930 64.878475 587.104083 C53.171888 595.936897 42.042210 612.311797 50.945861 623.964597 C55.417453 629.816865 63.313200 631.656587 70.592673 632.776161 C90.616017 635.855725 111.018314 636.463269 131.189424 634.580624 C114.865959 671.158146 105.532106 710.840185 103.838890 750.858976 C102.721595 777.265983 106.770418 807.361822 128.181861 822.857900 C152.632782 840.553738 186.574030 830.608737 214.843355 820.033509 C188.076014 807.113680 188.498418 768.973998 196.085496 740.236413 C203.672575 711.498828 213.362707 677.606184 194.403055 654.716358 C223.542457 652.539268 248.041258 688.050420 235.659767 714.518194 C218.063253 752.134063 251.704855 802.722429 293.199059 801.042575 C252.829040 888.411667 226.618668 984.802573 236.061920 1080.583164 C245.505173 1176.363754 294.709910 1271.228988 377.686977 1319.992735 C435.035599 1353.695224 502.918211 1363.322514 568.829799 1372.288277 M1502.587267 347.393052 C1375.584225 315.885194 1231.531437 373.304898 1161.027205 483.539515 C1151.947494 497.735797 1145.106638 519.047132 1158.493627 529.282565 C1256.329756 604.085932 1340.039149 701.653437 1380.725081 817.895009 C1421.411014 934.136581 1414.629804 1070.191458 1346.258848 1172.626123 C1410.894900 1199.186856 1484.875152 1174.523709 1546.832043 1142.202890 C1611.349883 1108.546109 1671.485710 1066.501001 1725.247573 1017.460276 C1712.525136 1077.932683 1668.336046 1128.034668 1616.410328 1161.538284 C1564.484611 1195.041900 1504.848513 1214.226816 1445.989110 1233.050817 C1457.347161 1252.212790 1465.335614 1273.365767 1469.479541 1295.252165 C1610.043721 1295.766042 1763.755160 1291.726035 1870.868696 1200.702725 C1970.922346 1115.678800 2003.980617 973.786852 1999.506340 842.562688 C1989.770168 557.015143 1819.607111 282.246928 1568.311054 146.296643 C1317.014998 10.346358 993.920037 18.263715 749.584451 166.359323 C621.656837 243.898236 516.792537 355.321254 431.296372 478.073691 C504.490265 439.807446 584.379564 414.390894 666.228941 403.330564 C665.464504 344.384265 708.575611 287.658853 765.574321 272.612336 C746.119792 242.975938 759.514286 199.593217 788.594440 179.316641 C817.674593 159.040065 857.208581 158.903999 890.606800 170.793231 C936.476333 187.122059 974.064582 225.190001 989.810456 271.262893 C1005.556330 317.335784 999.129270 370.446401 972.848033 411.433477 C1019.406651 426.984590 1063.906535 448.687074 1104.826849 475.799236 C1151.316742 411.038027 1206.794178 349.056676 1279.843380 317.132729 C1352.892582 285.208783 1446.876536 290.369909 1502.587267 347.393052 M1397.978753 1372.943029 C1425.585347 1347.163346 1434.961744 1303.728606 1420.448283 1268.856332 C1405.934823 1233.984057 1368.510761 1210.027158 1330.765531 1211.446191 C1317.859756 1211.931382 1304.826028 1215.240472 1294.192453 1222.569967 C1269.774895 1239.400468 1263.469062 1272.142435 1247.748199 1297.288753 C1237.222906 1314.124495 1222.062007 1328.004758 1213.637927 1345.984159 C1205.213846 1363.963559 1206.334108 1389.204541 1223.388039 1399.372502 C1229.222498 1402.851150 1236.129266 1404.072222 1242.907644 1404.514367 C1251.556296 1405.078506 1260.280435 1404.473805 1268.768548 1402.721855 C1272.435550 1401.964985 1276.389963 1400.767905 1278.449897 1397.641178 C1279.764207 1395.646216 1280.083115 1393.168353 1280.207036 1390.782577 C1280.838119 1378.632709 1277.167156 1366.302479 1269.993348 1356.476288 C1266.434123 1351.601106 1273.462220 1345.345712 1279.497737 1345.435213 C1292.652991 1345.630293 1301.784786 1358.536063 1306.809171 1370.695599 C1311.147038 1381.193690 1314.174106 1392.232633 1315.797841 1403.474986 C1316.600487 1409.032315 1324.361838 1409.579719 1329.896769 1408.634900 C1340.910587 1406.754831 1353.187806 1404.079920 1359.285740 1394.717544 C1364.030881 1387.432161 1363.642265 1378.057926 1362.935154 1369.392294 C1362.361563 1362.362955 1361.555811 1354.968601 1357.433825 1349.245854 C1352.264815 1342.069472 1343.138263 1339.162484 1334.646943 1336.689306 C1340.028582 1326.686093 1355.015531 1327.876044 1365.085491 1333.131728 C1380.759146 1341.312075 1392.901226 1356.007851 1397.978753 1372.943029 M866.702034 1444.547867 C862.097852 1439.012191 858.194857 1432.929006 853.721435 1427.287135 C833.794700 1402.155564 803.197520 1386.974700 771.676156 1381.052349 C740.154793 1375.129997 707.600574 1377.770275 676.008357 1383.302221 C665.265097 1385.183416 654.367246 1387.473895 644.909789 1392.906484 C635.452332 1398.339073 627.521051 1407.460532 626.123282 1418.277313 C624.877406 1427.918658 628.849462 1437.429802 633.316005 1446.064483 C646.016943 1470.617825 663.507115 1492.682388 684.513478 1510.652173 C694.095521 1518.849083 706.320640 1526.613034 718.517336 1523.412178 C729.207054 1520.606807 736.260172 1509.806236 738.043742 1498.899402 C739.827311 1487.992567 737.382060 1476.887415 734.949491 1466.106748 C734.129689 1462.473545 736.846581 1458.673158 740.368542 1457.461534 C743.890504 1456.249910 747.865956 1457.206217 751.063379 1459.116382 C761.623326 1465.424981 763.761657 1479.540245 764.797322 1491.797415 C765.361872 1498.478979 765.926426 1505.160540 766.490981 1511.842101 C767.358094 1522.104487 769.083345 1533.853199 777.788932 1539.356036 C786.191317 1544.667222 798.020806 1541.216061 804.626552 1533.788214 C811.232298 1526.360367 813.561197 1516.053544 814.224276 1506.135423 C814.625384 1500.135808 814.458696 1493.887356 811.899708 1488.446050 C809.340720 1483.004744 803.878683 1478.563644 797.870825 1478.812389 C801.772991 1469.492375 815.091404 1467.217936 823.847946 1472.259020 C832.604488 1477.300104 837.356381 1487.241787 839.871316 1497.027729 C842.386250 1506.813671 843.208913 1517.049601 846.715367 1526.525589 C848.690739 1531.863914 855.777751 1533.849577 861.121641 1531.889308 C866.465531 1529.929039 870.252446 1525.145562 873.105188 1520.219948 C886.612658 1496.897621 883.936327 1465.268914 866.702034 1444.547867 M842.810819 213.500412 C834.826503 213.576768 826.635575 214.652109 819.631204 218.485372 C812.626832 222.318636 806.983193 229.330625 806.495464 237.300396 C806.176150 242.518162 808.018590 247.607948 810.012345 252.440337 C817.327840 270.171363 827.091842 286.890221 838.940472 301.973844 C811.684920 299.247689 784.098281 308.092168 761.098622 322.968752 C737.995114 337.912508 717.763338 361.811243 718.203929 389.322946 C718.228514 390.858109 718.942079 392.932868 720.452520 392.657380 C786.837890 380.549232 855.597829 381.606434 921.579573 395.749757 C926.655313 396.837753 930.153604 390.897835 931.874093 386.000205 C940.735596 360.774577 948.823502 334.415902 946.533038 307.777354 C944.332616 282.185998 932.160647 257.582505 913.153251 240.305982 C894.145854 223.029460 868.495426 213.254786 842.810819 213.500412 z"/></svg>